<svg width="32" height="32" viewBox="0 0 32 32" fill="none" xmlns="http://www.w3.org/2000/svg">
<path d="M5.33337 9.33329C5.33337 8.62605 5.61433 7.94777 6.11442 7.44767C6.61452 6.94758 7.2928 6.66663 8.00004 6.66663H24C24.7073 6.66663 25.3856 6.94758 25.8857 7.44767C26.3858 7.94777 26.6667 8.62605 26.6667 9.33329V25.3333C26.6667 26.0405 26.3858 26.7188 25.8857 27.2189C25.3856 27.719 24.7073 28 24 28H8.00004C7.2928 28 6.61452 27.719 6.11442 27.2189C5.61433 26.7188 5.33337 26.0405 5.33337 25.3333V9.33329Z" stroke="black" stroke-width="1.33333" stroke-linecap="round" stroke-linejoin="round"/>
<path d="M21.3334 4V9.33333" stroke="black" stroke-width="1.33333" stroke-linecap="round" stroke-linejoin="round"/>
<path d="M10.6666 4V9.33333" stroke="black" stroke-width="1.33333" stroke-linecap="round" stroke-linejoin="round"/>
<path d="M5.33337 14.6666H26.6667" stroke="black" stroke-width="1.33333" stroke-linecap="round" stroke-linejoin="round"/>
<path d="M9.33337 18.6666H9.35071" stroke="black" stroke-width="1.33333" stroke-linecap="round" stroke-linejoin="round"/>
<path d="M13.3467 18.6666H13.3533" stroke="black" stroke-width="1.33333" stroke-linecap="round" stroke-linejoin="round"/>
<path d="M17.3467 18.6666H17.3533" stroke="black" stroke-width="1.33333" stroke-linecap="round" stroke-linejoin="round"/>
<path d="M21.3533 18.6666H21.3599" stroke="black" stroke-width="1.33333" stroke-linecap="round" stroke-linejoin="round"/>
<path d="M17.3534 22.6666H17.3601" stroke="black" stroke-width="1.33333" stroke-linecap="round" stroke-linejoin="round"/>
<path d="M9.34668 22.6666H9.35335" stroke="black" stroke-width="1.33333" stroke-linecap="round" stroke-linejoin="round"/>
<path d="M13.3467 22.6666H13.3533" stroke="black" stroke-width="1.33333" stroke-linecap="round" stroke-linejoin="round"/>
</svg>
